<mxfile host="app.diagrams.net" agent="Mozilla/5.0 (Windows NT 10.0; Win64; x64) AppleWebKit/537.36 (KHTML, like Gecko) Chrome/133.0.0.0 Safari/537.36" version="26.0.16">
  <diagram name="Modelagem-Fiap" id="dezLggaT3eavjqThn1IE">
    <mxGraphModel dx="1519" dy="972" grid="0" gridSize="10" guides="1" tooltips="1" connect="1" arrows="1" fold="1" page="0" pageScale="1" pageWidth="827" pageHeight="1169" math="0" shadow="0">
      <root>
        <mxCell id="0" />
        <mxCell id="1" parent="0" />
        <mxCell id="xSe_ImrfQkRO2Ib_OoVC-1" value="Clientes" style="swimlane;whiteSpace=wrap;html=1;startSize=23;" vertex="1" parent="1">
          <mxGeometry x="-465" y="-75" width="148" height="100" as="geometry" />
        </mxCell>
        <mxCell id="xSe_ImrfQkRO2Ib_OoVC-2" value="Id_cliente (pk)&lt;div&gt;Nome&lt;/div&gt;&lt;div&gt;Email&lt;/div&gt;" style="text;html=1;align=center;verticalAlign=middle;resizable=0;points=[];autosize=1;strokeColor=none;fillColor=none;fontSize=16;" vertex="1" parent="xSe_ImrfQkRO2Ib_OoVC-1">
          <mxGeometry x="16" y="23" width="119" height="70" as="geometry" />
        </mxCell>
        <mxCell id="xSe_ImrfQkRO2Ib_OoVC-7" value="Pedidos" style="swimlane;whiteSpace=wrap;html=1;startSize=23;" vertex="1" parent="1">
          <mxGeometry x="-262" y="-75" width="144" height="100" as="geometry" />
        </mxCell>
        <mxCell id="xSe_ImrfQkRO2Ib_OoVC-8" value="Id_pedido (pk)&lt;div&gt;id_cliente (fk)&lt;/div&gt;&lt;div&gt;Data_Pedido&lt;/div&gt;" style="text;html=1;align=center;verticalAlign=middle;resizable=0;points=[];autosize=1;strokeColor=none;fillColor=none;fontSize=16;" vertex="1" parent="xSe_ImrfQkRO2Ib_OoVC-7">
          <mxGeometry x="1" y="20" width="120" height="70" as="geometry" />
        </mxCell>
        <mxCell id="xSe_ImrfQkRO2Ib_OoVC-9" value="Produtos" style="swimlane;whiteSpace=wrap;html=1;startSize=23;" vertex="1" parent="1">
          <mxGeometry x="-465" y="82" width="151" height="113" as="geometry" />
        </mxCell>
        <mxCell id="xSe_ImrfQkRO2Ib_OoVC-10" value="&lt;div&gt;id_produto (pk)&lt;/div&gt;&lt;div&gt;Nome_Produto&lt;/div&gt;&lt;div&gt;Descricao_produto&lt;/div&gt;&lt;div&gt;Preco&lt;/div&gt;" style="text;html=1;align=center;verticalAlign=middle;resizable=0;points=[];autosize=1;strokeColor=none;fillColor=none;fontSize=16;" vertex="1" parent="xSe_ImrfQkRO2Ib_OoVC-9">
          <mxGeometry y="24" width="152" height="89" as="geometry" />
        </mxCell>
        <mxCell id="xSe_ImrfQkRO2Ib_OoVC-12" value="Detalhes_pedido" style="swimlane;whiteSpace=wrap;html=1;startSize=23;" vertex="1" parent="1">
          <mxGeometry x="-262" y="82" width="151" height="113" as="geometry" />
        </mxCell>
        <mxCell id="xSe_ImrfQkRO2Ib_OoVC-13" value="&lt;div&gt;id_detalhe (pk)&lt;/div&gt;&lt;div&gt;id_pedido&amp;nbsp;&lt;span style=&quot;background-color: transparent; color: light-dark(rgb(0, 0, 0), rgb(255, 255, 255));&quot;&gt;(fk)&lt;/span&gt;&lt;/div&gt;&lt;div&gt;id_produto (fk)&lt;/div&gt;&lt;div&gt;Quantidade&lt;/div&gt;" style="text;html=1;align=center;verticalAlign=middle;resizable=0;points=[];autosize=1;strokeColor=none;fillColor=none;fontSize=16;" vertex="1" parent="xSe_ImrfQkRO2Ib_OoVC-12">
          <mxGeometry x="14" y="24" width="124" height="89" as="geometry" />
        </mxCell>
        <mxCell id="xSe_ImrfQkRO2Ib_OoVC-18" value="" style="endArrow=none;html=1;rounded=0;fontSize=12;startSize=8;endSize=8;curved=1;exitX=1;exitY=0.75;exitDx=0;exitDy=0;" edge="1" parent="1" source="xSe_ImrfQkRO2Ib_OoVC-1">
          <mxGeometry width="50" height="50" relative="1" as="geometry">
            <mxPoint x="-309" y="7" as="sourcePoint" />
            <mxPoint x="-261" as="targetPoint" />
          </mxGeometry>
        </mxCell>
        <mxCell id="xSe_ImrfQkRO2Ib_OoVC-21" value="" style="endArrow=none;html=1;rounded=0;fontSize=12;startSize=8;endSize=8;curved=1;exitX=1;exitY=0.75;exitDx=0;exitDy=0;" edge="1" parent="1">
          <mxGeometry width="50" height="50" relative="1" as="geometry">
            <mxPoint x="-316" y="153" as="sourcePoint" />
            <mxPoint x="-260" y="153" as="targetPoint" />
          </mxGeometry>
        </mxCell>
        <mxCell id="xSe_ImrfQkRO2Ib_OoVC-22" value="" style="endArrow=none;html=1;rounded=0;fontSize=12;startSize=8;endSize=8;curved=1;exitX=0.5;exitY=1;exitDx=0;exitDy=0;" edge="1" parent="1" source="xSe_ImrfQkRO2Ib_OoVC-7">
          <mxGeometry width="50" height="50" relative="1" as="geometry">
            <mxPoint x="-223" y="48" as="sourcePoint" />
            <mxPoint x="-190" y="81" as="targetPoint" />
          </mxGeometry>
        </mxCell>
      </root>
    </mxGraphModel>
  </diagram>
</mxfile>
